<svg width="16" height="16" viewBox="0 0 16 16" fill="none" xmlns="http://www.w3.org/2000/svg">
    <g clip-path="url(#j7ctffjawa)" fill-rule="evenodd" clip-rule="evenodd">
        <path d="M8 4.994a3 3 0 1 1 0 5.999 3.002 3.002 0 0 1-3.003-3c0-1.656 1.346-3 3.003-3z" fill="#26A6D1"/>
        <path d="M8 11.993a3.999 3.999 0 0 1-3.962-3.455l-2.76-4.781-.003-.007-.309.445c-.076.14-.15.281-.218.426L.6 4.966a7.174 7.174 0 0 0-.273.775l-.089.319a8.154 8.154 0 0 0-.097.446l-.054.316a7.324 7.324 0 0 0-.052.437l-.026.348a8.166 8.166 0 0 0 0 .797l.026.349c.014.145.031.292.052.437l.054.316c.03.15.06.298.097.446l.09.319c.04.137.082.276.131.412.044.122.093.242.141.363.048.115.095.23.148.344.068.145.142.285.219.426l.1.196.045.071c.089.15.186.294.284.438l.157.233c.094.13.198.252.302.376l.207.248c.09.098.187.192.282.287.095.096.188.193.287.282l.249.208c.124.102.247.206.376.3l.232.159c.144.098.288.195.438.283l.07.046.196.1c.14.075.281.15.426.218l.041.022.203.083a8.07 8.07 0 0 0 1.683.5L8.83 11.91a4.23 4.23 0 0 1-.83.084z" fill="#3DB39E"/>
        <path d="m15.98 7.448-.01-.132c-.057-.668-.332-1.634-.56-2.283h-4.726a3.99 3.99 0 0 1-.195 6.09L7.676 16c.99 0 2.322-.178 3.281-.561l.033-.01.05-.022c.328-.136.65-.284.966-.466.281-.162.545-.344.8-.534l.014-.012c.246-.185.475-.383.694-.59l.035-.03.11-.113c.485-.484.9-1.019 1.24-1.596l.038-.056.07-.14c.109-.199.21-.401.302-.607l.118-.278c.078-.195.146-.393.209-.594l.082-.258c.077-.278.14-.559.186-.843l.02-.162c.034-.244.059-.49.071-.738L16 8.192a8.59 8.59 0 0 0-.019-.744z" fill="#EFC75E"/>
        <path d="M14.932 3.994a8.026 8.026 0 0 0-.553-.821l-.064-.08a7.733 7.733 0 0 0-.563-.65l-.135-.137a8.115 8.115 0 0 0-.68-.603l-.052-.044a7.9 7.9 0 0 0-.824-.552l-.057-.038-.217-.113c-.125-.067-.25-.135-.379-.195-.123-.058-.248-.109-.372-.16l-.314-.125c-.152-.055-.305-.1-.458-.148l-.256-.074a8.484 8.484 0 0 0-.504-.11L9.266.099a7.492 7.492 0 0 0-.493-.059l-.27-.027c-.14-.01-.281-.008-.423-.01L7.732 0l-.27.02A7.997 7.997 0 0 0 5.68.342l-.122.033c-.148.048-.295.107-.442.164l-.282.112c-.121.051-.24.112-.361.171a7.595 7.595 0 0 0-.347.178l-.13.067-.192.124a8.04 8.04 0 0 0-.656.449l-.275.22a8.49 8.49 0 0 0-.332.29l-.204.2c-.119.119-.235.24-.344.365l-.075.09 2.278 3.947A4.004 4.004 0 0 1 8 3.994h6.93z" fill="#E2574C"/>
    </g>
    <defs>
        <clipPath id="j7ctffjawa">
            <path fill="#fff" d="M0 0h16v16H0z"/>
        </clipPath>
    </defs>
</svg>
