<svg width="15" height="20" viewBox="0 0 15 20" fill="none" xmlns="http://www.w3.org/2000/svg">
    <path d="M.25 9.75c0-1.258.328-2.46.93-3.5l3.008 5.223A3.474 3.474 0 0 0 7.25 13.25c.383 0 .738-.055 1.094-.164l-2.078 3.61C2.848 16.23.25 13.304.25 9.75zm9.98 1.805c.329-.52.52-1.149.52-1.805 0-1.04-.465-1.969-1.203-2.625h4.183c.329.82.52 1.723.52 2.625 0 3.883-3.145 7-7 7l2.98-5.195zm3.063-5.305H7.25c-1.723 0-3.117 1.23-3.445 2.816L1.727 5.457A7.011 7.011 0 0 1 7.25 2.75c2.57 0 4.84 1.422 6.043 3.5zm-8.45 3.5A2.41 2.41 0 0 1 7.25 7.344 2.428 2.428 0 0 1 9.656 9.75a2.41 2.41 0 0 1-2.406 2.406A2.392 2.392 0 0 1 4.844 9.75z" fill="#7B8197"/>
</svg>
