<svg width="15" height="20" viewBox="0 0 15 20" fill="none" xmlns="http://www.w3.org/2000/svg">
    <path d="M14.004 9.367c0 .11 0 .246.027.356a6.81 6.81 0 0 1-6.808 6.808 6.791 6.791 0 0 1-6.7-5.633c0-.109 0-.191-.027-.273a7.174 7.174 0 0 1 .438-3.418c.3-.71.902-1.477 1.367-1.723-.438.875-.656 1.723-.711 2.297.328-1.011.902-1.86 1.722-2.46 1.395-1.04 3.282-1.094 4.047-.438-1.394.492-2.925 2.406-2.597 4.676.054.382.164.738.328 1.066-.246-.684-.274-1.64.137-2.27.492-.71 1.148-.847 1.503-.765-.136-.027-.437.547-.492.656-.11.274-.191.574-.164.848 0 .629.246 1.203.684 1.613 1.312 1.285 3.418.766 4.347-.684.657-.984.739-2.68-.109-4.02a4.495 4.495 0 0 0-.71-.901 5.78 5.78 0 0 0-4.95-1.45h-.027c-.028.028-.082.028-.137.028 0 0-.027 0-.027.027l-.165.027c-.382.11-.957.301-1.34.547h-.027.028-.028l.028-.027.054-.055c.547-.492 1.368-.875 2.27-1.066a6.33 6.33 0 0 1 1.258-.137h.273c.356 0 .711.055 1.04.11.027 0 .054 0 .081.027.055 0 .11 0 .164.027.52.11 1.04.3 1.504.52.082.027.137.082.192.11.246.108.464.245.683.41.11.081.246.163.356.273.164.136.328.3.492.465.219.218.437.464.629.71.027.028.054.082.082.11l.027.027.055.082.027.028c0 .027.027.054.055.082 0 0 0 .027.027.027l.027.082c.028 0 .028.027.028.027.027.028.027.055.055.082 0 0 .027.028.027.055 0 0 .027.027.027.055 0 0 .028.027.028.054.027 0 .027.028.027.055.027 0 .027.027.055.055 0 0 0 .027.027.054 0 0 .027.028.027.055 0 0 .028.027.028.055 0 .027.027.027.027.054 0 .028.027.028.027.055 0 0 .028.028.028.055l.027.027c.027.11.082.219.137.301v.027c0 .028.027.055.027.082v.028c.027.027.027.054.055.082v.027a.207.207 0 0 1 .027.11l.027.027c0 .027.028.054.028.082v.027c.027.028.027.082.027.11l.027.027c0 .027 0 .055.028.082v.027l.027.11c.11.382.164.738.192 1.12l.027.137v.137z" fill="#7B8197"/>
</svg>
