<svg width="16" height="16" viewBox="0 0 16 16" fill="none" xmlns="http://www.w3.org/2000/svg">
    <g clip-path="url(#7huzdfbq7a)" fill-rule="evenodd" clip-rule="evenodd">
        <path d="M7.99 0c4.145 0 7.49 3.447 7.49 7.717s-3.345 7.717-7.49 7.717S.5 11.987.5 7.717 3.844 0 7.99 0z" fill="#3165CC"/>
        <path d="M9.289 15.846c3.795-.669 6.691-4.013 6.691-8.129l-.05.103c.1-.772.1-1.492-.05-2.058-.05.463-.1.72-.2.823 0-.051 0-.514-.15-1.131a5.78 5.78 0 0 0-.299-1.338c.05.206.05.36.05.514-.6-1.594-1.997-3.6-5.543-3.55 0 0 1.248.155 1.798 1.03 0 0-.6-.155-1.049.102.55.206 1.049.463 1.448.72h.05c.1.052.2.155.3.206.749.566 1.448 1.338 1.398 2.316-.2-.31-.4-.515-.699-.566.35 1.389.35 2.52.1 3.395-.2-.617-.35-.926-.5-1.08.2 1.852-.05 3.19-.848 4.064.15-.514.2-.977.2-1.338-.95 1.44-1.998 2.213-3.197 2.264-.45 0-.899-.051-1.348-.206-.6-.206-1.149-.566-1.648-1.08.749.051 1.498-.052 2.097-.412l1-.669a.537.537 0 0 1 .399 0c.25-.05.35-.154.25-.411-.1-.154-.3-.309-.55-.463-.5-.257-1.049-.206-1.598.154-.55.309-1.049.309-1.548-.051a3.98 3.98 0 0 1-.949-.926l-.1-.206c-.05.463 0 .977.2 1.698-.2-.67-.25-1.235-.2-1.698 0-.36.15-.617.45-.617h-.1.15c.349.051.699.103 1.148.257.05-.412 0-.875-.3-1.338.4-.411.75-.669 1.05-.823.149-.051.199-.206.249-.36.1-.206.05-.309-.05-.412-.3 0-.55 0-.849-.051-.1-.051-.25-.154-.45-.309l-.449-.463-.15-.103-.05-.051.05-.051c.05-.36.15-.67.3-.927l.05-.051c.15-.257.45-.514.849-.823-.8.103-1.498.463-2.148 1.08-.499-.154-1.148-.103-1.847.206l-.1.051.1-.051c-.45-.206-.75-.823-.9-1.852C1.15 1.8.9 2.881.9 4.373l-.15.257-.05.052c-.1.154-.2.36-.35.617-.2.412-.299.72-.299 1.03v.308l.45-.36c-.15.463-.3.926-.35 1.389v.206L0 7.717c0 1.75.55 3.396 1.448 4.733l.05.052.05.051c.65.926 1.498 1.698 2.497 2.315.7.412 1.448.72 2.247.926l.15.052c.15.051.35.051.5.103.15 0 .25.051.399.051H8.54c.2 0 .399-.051.599-.051 0-.103.15-.103.15-.103zm5.043-10.032v.107-.107z" fill="#E78B33"/>
    </g>
    <defs>
        <clipPath id="7huzdfbq7a">
            <path fill="#fff" d="M0 0h16v16H0z"/>
        </clipPath>
    </defs>
</svg>
