<svg width="19" height="20" viewBox="0 0 19 20" fill="none" xmlns="http://www.w3.org/2000/svg">
<rect width="19" height="20" rx="3" fill="#FDF2EF"/>
<path d="M13.0859 7.71094L10.2734 10.5234L13.0625 13.3125C13.2969 13.5234 13.2969 13.875 13.0625 14.0859C12.8516 14.3203 12.5 14.3203 12.2891 14.0859L9.47656 11.2969L6.6875 14.0859C6.47656 14.3203 6.125 14.3203 5.91406 14.0859C5.67969 13.875 5.67969 13.5234 5.91406 13.2891L8.70312 10.5L5.91406 7.71094C5.67969 7.5 5.67969 7.14844 5.91406 6.91406C6.125 6.70312 6.47656 6.70312 6.71094 6.91406L9.5 9.72656L12.2891 6.9375C12.5 6.70312 12.8516 6.70312 13.0859 6.9375C13.2969 7.14844 13.2969 7.5 13.0859 7.71094Z" fill="#9F3415"/>
</svg>
