<svg width="22" height="20" viewBox="0 0 22 20" fill="none" xmlns="http://www.w3.org/2000/svg">
<rect width="22" height="20" rx="3" fill="#F7F9FB"/>
<path d="M14.0234 14.3438L7.15625 7.47656C6.5 8.32031 6.125 9.375 6.125 10.5C6.125 13.1953 8.30469 15.375 11 15.375C12.125 15.375 13.1797 15 14.0234 14.3438ZM14.8203 13.5469C15.4766 12.7031 15.875 11.6484 15.875 10.5C15.875 7.82812 13.6719 5.625 11 5.625C9.85156 5.625 8.79688 6.02344 7.95312 6.67969L14.8203 13.5469ZM5 10.5C5 8.36719 6.125 6.39844 8 5.32031C9.85156 4.24219 12.125 4.24219 14 5.32031C15.8516 6.39844 17 8.36719 17 10.5C17 12.6562 15.8516 14.625 14 15.7031C12.125 16.7812 9.85156 16.7812 8 15.7031C6.125 14.625 5 12.6562 5 10.5Z" fill="#737779"/>
</svg>
