<svg width="16" height="16" viewBox="0 0 16 16" fill="none" xmlns="http://www.w3.org/2000/svg">
    <g clip-path="url(#lulbjfagva)">
        <path d="M8.016 16c-2.875 0-5.5-1.5-6.938-4-1.437-2.469-1.437-5.5 0-8a8.018 8.018 0 0 1 6.938-4c2.843 0 5.468 1.531 6.906 4 1.437 2.5 1.437 5.531 0 8a7.94 7.94 0 0 1-6.906 4zm3.03-10-1.03-1.031-.532.531-1.468 1.469L6.546 5.5l-.53-.531L4.953 6l.531.531L6.954 8l-1.47 1.469-.53.531 1.062 1.063.53-.532 1.47-1.469 1.468 1.47.532.53L11.046 10l-.53-.531L9.046 8l1.47-1.469.53-.531z" fill="#DC0A56"/>
    </g>
    <defs>
        <clipPath id="lulbjfagva">
            <path fill="#fff" d="M0 0h16v16H0z"/>
        </clipPath>
    </defs>
</svg>
