<svg width="22" height="20" viewBox="0 0 22 20" fill="none" xmlns="http://www.w3.org/2000/svg">
<rect width="22" height="20" rx="3" fill="#F9F9FE"/>
<path d="M11.5625 5.0625V6.9375C11.5625 7.26562 11.3047 7.5 11 7.5C10.6719 7.5 10.4375 7.26562 10.4375 6.9375V5.0625C10.4375 4.75781 10.6719 4.5 11 4.5C11.3047 4.5 11.5625 4.75781 11.5625 5.0625ZM11.5625 14.0625V15.9375C11.5625 16.2656 11.3047 16.5 11 16.5C10.6719 16.5 10.4375 16.2656 10.4375 15.9375V14.0625C10.4375 13.7578 10.6719 13.5 11 13.5C11.3047 13.5 11.5625 13.7578 11.5625 14.0625ZM5 10.5C5 10.1953 5.23438 9.9375 5.5625 9.9375H7.4375C7.74219 9.9375 8 10.1953 8 10.5C8 10.8281 7.74219 11.0625 7.4375 11.0625H5.5625C5.23438 11.0625 5 10.8281 5 10.5ZM14.5625 9.9375H16.4375C16.7422 9.9375 17 10.1953 17 10.5C17 10.8281 16.7422 11.0625 16.4375 11.0625H14.5625C14.2344 11.0625 14 10.8281 14 10.5C14 10.1953 14.2344 9.9375 14.5625 9.9375ZM15.2422 6.25781C15.4531 6.49219 15.4531 6.84375 15.2422 7.05469L13.9062 8.39062C13.6953 8.60156 13.3203 8.60156 13.1094 8.39062C12.8984 8.17969 12.8984 7.80469 13.1094 7.59375L14.4453 6.25781C14.6562 6.04688 15.0078 6.04688 15.2422 6.25781ZM8.86719 13.4297L7.53125 14.7422C7.32031 14.9766 6.96875 14.9766 6.75781 14.7422C6.52344 14.5312 6.52344 14.1797 6.75781 13.9688L8.07031 12.6328C8.28125 12.4219 8.65625 12.4219 8.86719 12.6328C9.07812 12.8438 9.07812 13.1953 8.86719 13.4297ZM6.75781 6.25781C6.96875 6.04688 7.32031 6.04688 7.53125 6.25781L8.86719 7.59375C9.07812 7.80469 9.07812 8.17969 8.86719 8.39062C8.65625 8.60156 8.30469 8.60156 8.07031 8.39062L6.75781 7.05469C6.52344 6.84375 6.52344 6.49219 6.75781 6.25781ZM13.9062 12.6328L15.2422 13.9688C15.4531 14.1797 15.4531 14.5312 15.2422 14.7422C15.0078 14.9766 14.6562 14.9766 14.4453 14.7422L13.1094 13.4297C12.8984 13.2188 12.8984 12.8438 13.1094 12.6328C13.3203 12.4219 13.6953 12.4219 13.9062 12.6328Z" fill="#6565EC"/>
</svg>
