<svg width="16" height="16" viewBox="0 0 16 16" fill="none" xmlns="http://www.w3.org/2000/svg">
    <g clip-path="url(#hf8qct7jka)">
        <path d="M8.016 16c-2.875 0-5.5-1.5-6.938-4-1.437-2.469-1.437-5.5 0-8a8.018 8.018 0 0 1 6.938-4c2.843 0 5.468 1.531 6.906 4 1.437 2.5 1.437 5.531 0 8a7.94 7.94 0 0 1-6.906 4zm3.53-9.469h-.03l.53-.531-1.03-1.063-.532.532-3.468 3.5L5.546 7.5l-.53-.531L3.953 8l.531.531 2 2 .532.531.53-.53 4-4z" fill="#1BBB78"/>
    </g>
    <defs>
        <clipPath id="hf8qct7jka">
            <path fill="#fff" d="M0 0h16v16H0z"/>
        </clipPath>
    </defs>
</svg>
