<svg width="14" height="15" viewBox="0 0 14 15" fill="none" xmlns="http://www.w3.org/2000/svg">
    <path d="M3.5 2.5c0-.957.766-1.75 1.75-1.75h4.375v3.5c0 .492.383.875.875.875H14V13c0 .984-.793 1.75-1.75 1.75h-7c-.984 0-1.75-.766-1.75-1.75V9.937h4.758L7.19 11.005c-.273.273-.273.684 0 .93.247.273.657.273.93 0l2.188-2.188c.246-.246.246-.656 0-.93L8.12 6.63c-.273-.246-.684-.246-.93 0-.273.273-.273.684 0 .93l1.067 1.066H3.5V2.5zm0 6.125v1.313H.656A.632.632 0 0 1 0 9.28c0-.355.273-.656.656-.656H3.5zM14 4.25h-3.5V.75l3.5 3.5z" fill="#2236E5" fill-opacity=".6"/>
</svg>
