<svg width="16" height="16" viewBox="0 0 16 16" fill="none" xmlns="http://www.w3.org/2000/svg">
    <circle cx="8" cy="8" r="7.333" fill="#76BF42"/>
    <rect x="5.556" y="6.533" width="4.889" height="4.889" rx=".8" fill="#fff"/>
    <rect x="3.6" y="6.533" width=".978" height="3.911" rx=".489" fill="#fff"/>
    <rect x="11.422" y="6.533" width=".978" height="3.911" rx=".489" fill="#fff"/>
    <rect x="8.489" y="9.467" width=".978" height="3.911" rx=".489" fill="#fff"/>
    <rect x="6.533" y="9.467" width=".978" height="3.911" rx=".489" fill="#fff"/>
    <path fill-rule="evenodd" clip-rule="evenodd" d="M10.259 5.43a.19.19 0 0 0 .181-.23 2.568 2.568 0 0 0-1.218-1.71l.387-.718a.102.102 0 0 0-.039-.137.096.096 0 0 0-.132.04l-.39.722a2.423 2.423 0 0 0-2.096 0l-.39-.723a.096.096 0 0 0-.132-.04.102.102 0 0 0-.038.138l.386.718A2.568 2.568 0 0 0 5.56 5.2a.19.19 0 0 0 .181.23h4.518z" fill="#fff"/>
    <path fill-rule="evenodd" clip-rule="evenodd" d="M9.138 4.576a.213.213 0 0 1-.21-.216c0-.12.094-.217.21-.217.116 0 .21.097.21.217s-.094.216-.21.216zM7.072 4.36c0 .12-.094.216-.21.216a.213.213 0 0 1-.21-.216c0-.12.094-.217.21-.217.116 0 .21.097.21.217z" fill="#fff"/>
</svg>
