<svg width="16" height="16" viewBox="0 0 16 16" fill="none" xmlns="http://www.w3.org/2000/svg">
    <path fill-rule="evenodd" clip-rule="evenodd" d="M1.93 5.798c-1.401 2.366-.511 5.958 1.038 8.136C3.74 15.023 4.524 16 5.596 16l.06-.001c.504-.02.868-.17 1.22-.317.395-.164.804-.333 1.445-.333.61 0 .999.164 1.375.322.371.157.753.318 1.318.308 1.207-.022 1.949-1.076 2.603-2.007a8.793 8.793 0 0 0 1.14-2.275l.005-.014a.131.131 0 0 0-.082-.166c-.213-.085-2.078-.891-2.098-3.087-.018-1.785 1.4-2.73 1.684-2.901l.013-.008c.03-.02.052-.05.06-.085a.13.13 0 0 0-.021-.101c-.979-1.394-2.479-1.605-3.082-1.63a2.795 2.795 0 0 0-.27-.013c-.708 0-1.388.261-1.933.47-.377.145-.703.27-.927.27-.252 0-.58-.126-.958-.272-.507-.196-1.082-.418-1.69-.418h-.042c-1.414.02-2.75.808-3.487 2.056zM10.914 0c-.885.032-1.946.515-2.58 1.173-.539.553-1.065 1.476-.927 2.405.009.059.062.104.128.108.06.004.121.006.182.006.865 0 1.798-.424 2.435-1.106.67-.721 1.01-1.647.907-2.475-.008-.065-.072-.113-.145-.11z" fill="#595959"/>
</svg>
