<svg width="17" height="16" viewBox="0 0 17 16" fill="none" xmlns="http://www.w3.org/2000/svg">
    <path d="M8.124 3.544a.759.759 0 0 1-.004-.073c0-.356.234-.646.52-.646.294 0 .524.284.524.646a.78.78 0 0 1-.036.234.925.925 0 0 0 .136-.489c0-.433-.277-.785-.617-.785-.34 0-.617.352-.617.785 0 .107.016.211.05.311l.044.017zM6.587 2.86a.344.344 0 0 1 .053-.005c.228 0 .433.224.486.533a.902.902 0 0 1 .01.1.751.751 0 0 1 .046-.02c.007-.054.011-.104.011-.155 0-.4-.212-.737-.462-.737-.213 0-.393.235-.444.552.058-.144.164-.246.3-.269zM10.885 10.919c.058-.244.172-.865.064-1.616-.137-.95-1.473-3.908-1.703-4.238-.134.019-.49.225-.78.392-.335.193-.682.394-.918.462-.049.014-.1.02-.154.02-.344 0-.717-.29-.958-.52-.042.445-.279 1.01-.536 1.3-.162.187-.307.611-.447 1.022-.13.381-.264.774-.428 1.034-.333.518-.524 1.525-.282 2.097.117.278.542.605.917.894.459.354.855.66.899.967.05.364-.143.566-.336.662l.49.562c.076.011.26.033.546.033.335 0 .706-.03 1.104-.087.978-.145 1.659-.95 1.793-1.121 0-.227.008-1.235.074-1.55.025-.121.124-.324.496-.324.058 0 .113.005.16.01z" fill="#fff"/>
    <path d="M6.798 4.681c.02.075.19.266.455.44l.106.07c.147.1.213.14.318.127.156-.02.73-.368.975-.516l.06-.037c.092-.055.165-.093.223-.123.116-.06.127-.07.132-.092-.013-.034-.122-.125-.33-.197-.065-.023-.16-.06-.268-.104-.234-.093-.556-.221-.686-.244a.087.087 0 0 0-.017-.002c-.11 0-.335.14-.557.346a8.98 8.98 0 0 1-.41.332zM4.84 12.347c-.097-.162-.18-.3-.226-.37-.177-.276-.485-.583-.632-.583a.044.044 0 0 0-.024.005c-.078.045-.144.18-.208.311-.088.181-.188.387-.372.498-.137.083-.345.128-.547.172-.143.03-.479.104-.495.171-.021.092-.001.187.025.306.03.142.067.317.035.533a2.802 2.802 0 0 1-.103.39c-.056.174-.119.37-.064.431.066.06.47.124.764.172.37.06.754.122.988.22l.062.026c.42.176 1.202.504 1.597.504a.421.421 0 0 0 .09-.009c.069-.046.358-.252.412-.507.074-.327-.227-.71-.413-.908-.206-.221-.601-.88-.89-1.362zM13.765 13.132l-.048-.025c-.33-.175-.504-.648-.481-1.004a.397.397 0 0 0-.018-.156 1.8 1.8 0 0 1-.251.33c-.176.176-.606.365-.993.365a.975.975 0 0 1-.392-.075c-.386-.169-.439-.65-.44-.893a.101.101 0 0 0-.015.006c-.024.083-.001.364.014.553.008.101.017.206.022.302.022.423-.113 1.14-.23 1.668-.112.516.095.878.347.956.022.007.048.01.076.01.231 0 .615-.238.954-.594.24-.253.777-.526 1.25-.767.266-.136.542-.276.62-.348.018-.016.02-.025.02-.025-.004-.078-.317-.242-.435-.303z" fill="#E69629"/>
    <path d="M14.584 12.847c-.467-.192-.667-.447-.648-.828.02-.444-.23-.77-.35-.898.072-.276.282-1.231 0-2.061-.303-.888-1.228-2.245-2.182-3.578-.391-.548-.41-1.143-.431-1.832-.02-.657-.044-1.403-.409-2.23C10.168.516 9.373 0 8.382 0A2.98 2.98 0 0 0 6.72.508c-.954.661-.828 2.104-.745 3.058.012.13.022.254.029.36.055.934.005 1.427-.061 1.576-.043.098-.254.377-.476.671-.23.305-.492.651-.706.973-.256.388-.462.98-.661 1.553-.146.419-.284.815-.418 1.051-.254.455-.191.88-.138 1.076-.097.067-.236.2-.353.449-.142.304-.43.468-1.029.583-.275.057-.465.173-.564.346-.144.251-.066.567.006.783.106.317.04.518-.08.883-.028.084-.06.179-.09.284a.515.515 0 0 0 .053.448c.226.347.886.47 1.565.55.405.049.85.212 1.279.37.42.154.855.314 1.25.362.06.008.12.012.178.012.597 0 .866-.398.952-.562a10.53 10.53 0 0 1 1.716-.204 7.425 7.425 0 0 1 1.706.176c.066.127.239.415.514.563.152.083.362.131.578.131.23 0 .67-.055 1.017-.422.346-.368 1.211-.84 1.843-1.183.14-.076.273-.148.388-.213.355-.198.549-.48.531-.775a.655.655 0 0 0-.42-.56zM8.838 2.312c.344 0 .624.358.624.798 0 .183-.05.358-.137.497a.799.799 0 0 0 .036-.238c0-.368-.233-.656-.53-.656-.29 0-.525.294-.525.656 0 .025.001.05.003.074l-.044-.017a1.008 1.008 0 0 1-.05-.316c0-.44.28-.798.623-.798zm-1.058 1.6c.131.023.455.152.69.247.11.044.204.081.27.105.21.072.318.165.331.2-.005.022-.015.031-.132.092-.059.031-.132.07-.224.126l-.061.037c-.246.15-.823.501-.98.522-.106.014-.172-.027-.32-.128a4.561 4.561 0 0 0-.107-.072c-.266-.175-.438-.369-.457-.445.087-.067.302-.236.413-.336.224-.21.449-.35.56-.35l.017.001zM6.901 2.46c.254 0 .468.343.468.749 0 .051-.004.102-.012.156a.798.798 0 0 0-.045.022.936.936 0 0 0-.01-.103c-.055-.313-.262-.54-.493-.54a.346.346 0 0 0-.053.004c-.137.022-.245.126-.304.273.052-.322.234-.56.45-.56zm-.77 12.2c-.055.258-.346.467-.414.514a.426.426 0 0 1-.092.008c-.397 0-1.183-.332-1.605-.51l-.063-.027c-.236-.099-.62-.162-.993-.222-.296-.048-.702-.114-.77-.174-.054-.061.01-.261.065-.437.04-.127.082-.258.105-.395.032-.218-.006-.396-.036-.54-.026-.12-.047-.216-.025-.31.016-.068.354-.142.498-.173.203-.044.412-.09.55-.174.185-.113.285-.32.374-.504.064-.133.13-.27.209-.315a.043.043 0 0 1 .024-.006c.148 0 .457.312.636.59.045.071.129.212.226.375.29.488.687 1.156.895 1.38.187.201.49.588.415.92zm4.307-3.409c-.067.32-.074 1.344-.074 1.574-.136.174-.824.992-1.812 1.139a7.816 7.816 0 0 1-1.117.088c-.29 0-.474-.022-.551-.034l-.496-.57c.195-.098.391-.303.34-.672-.045-.313-.445-.623-.909-.982-.379-.294-.808-.626-.927-.908-.244-.582-.051-1.604.285-2.13.166-.264.302-.664.433-1.05.142-.417.288-.849.452-1.038.26-.295.5-.869.542-1.32.243.232.62.528.968.528a.568.568 0 0 0 .156-.021c.238-.07.588-.273.927-.47.293-.17.653-.378.789-.397.232.335 1.583 3.339 1.721 4.304a4.583 4.583 0 0 1-.064 1.641 1.197 1.197 0 0 0-.16-.012c-.377 0-.477.207-.503.33zm3.776 2.237c-.079.072-.356.215-.624.352-.476.244-1.015.521-1.257.777-.341.36-.727.603-.96.603a.252.252 0 0 1-.076-.011c-.253-.08-.46-.446-.349-.969.118-.534.254-1.26.232-1.689a11.1 11.1 0 0 0-.022-.306c-.016-.191-.039-.476-.015-.56a.099.099 0 0 1 .016-.006c0 .245.054.734.442.904.116.05.249.076.394.076.39 0 .821-.192.998-.37.105-.104.192-.232.254-.334.013.04.021.091.017.158-.023.361.152.84.484 1.017l.048.025c.119.063.433.229.438.308 0 0-.002.009-.02.025z" fill="#000"/>
</svg>
