<svg width="17" height="16" viewBox="0 0 17 16" fill="none" xmlns="http://www.w3.org/2000/svg">
    <path fill-rule="evenodd" clip-rule="evenodd" d="M2.446 5.798c-1.4 2.366-.51 5.958 1.039 8.136C4.258 15.023 5.04 16 6.112 16L6.174 16c.503-.02.867-.17 1.22-.317.394-.164.803-.333 1.444-.333.61 0 .999.164 1.375.322.37.157.753.318 1.317.308 1.208-.022 1.95-1.076 2.604-2.007a8.798 8.798 0 0 0 1.14-2.275l.005-.014a.131.131 0 0 0-.082-.166c-.213-.085-2.078-.891-2.098-3.087-.018-1.785 1.4-2.73 1.684-2.901l.013-.008c.03-.02.052-.05.06-.085a.13.13 0 0 0-.021-.101c-.979-1.394-2.479-1.605-3.082-1.63a2.792 2.792 0 0 0-.27-.013c-.708 0-1.388.261-1.934.47-.376.145-.702.27-.926.27-.252 0-.58-.126-.959-.272-.506-.196-1.08-.418-1.689-.418h-.043c-1.414.02-2.75.808-3.486 2.056zM11.43 0c-.884.032-1.945.515-2.58 1.173-.539.553-1.065 1.476-.926 2.405.008.059.062.104.128.108.06.004.12.006.181.006.865 0 1.798-.424 2.435-1.106.67-.721 1.01-1.647.907-2.475-.008-.065-.072-.113-.145-.11z" fill="#595959"/>
</svg>
