<svg width="14" height="11" viewBox="0 0 14 11" fill="none" xmlns="http://www.w3.org/2000/svg">
    <path d="M7 .25c.328 0 .633.188.797.469l5.062 8.625a.954.954 0 0 1 0 .937.889.889 0 0 1-.796.469H1.937c-.351 0-.656-.164-.82-.469a.954.954 0 0 1 0-.937L6.18.719A.945.945 0 0 1 7 .25zm0 3a.555.555 0 0 0-.563.563v2.624c0 .329.235.563.563.563a.555.555 0 0 0 .563-.563V3.813A.57.57 0 0 0 7 3.25zm.75 5.25A.771.771 0 0 0 7 7.75a.755.755 0 0 0-.75.75c0 .422.328.75.75.75.398 0 .75-.328.75-.75z" fill="#DE7A2D"/>
</svg>
