<svg width="16" height="16" viewBox="0 0 16 16" fill="none" xmlns="http://www.w3.org/2000/svg">
    <g clip-path="url(#askan94xwa)">
        <path d="M11.469 12.89 3.094 4.517A6.095 6.095 0 0 0 2 7.984c0 3.313 2.688 6 6 6a6.095 6.095 0 0 0 3.469-1.093zm1.406-1.406c.688-1 1.125-2.187 1.125-3.5 0-3.312-2.688-6-6-6-1.313 0-2.5.438-3.5 1.125l8.375 8.375zM0 7.984a7.94 7.94 0 0 1 4-6.906c2.469-1.437 5.5-1.437 8 0 2.469 1.438 4 4.063 4 6.906 0 2.875-1.531 5.5-4 6.938-2.5 1.437-5.531 1.437-8 0a7.953 7.953 0 0 1-4-6.938z" fill="#797B7F"/>
    </g>
    <defs>
        <clipPath id="askan94xwa">
            <path fill="#fff" d="M0 0h16v16H0z"/>
        </clipPath>
    </defs>
</svg>
