<svg width="14" height="13" viewBox="0 0 14 13" fill="none" xmlns="http://www.w3.org/2000/svg">
    <path d="M7 12.5a5.965 5.965 0 0 1-5.203-3 5.97 5.97 0 0 1 0-6A6.014 6.014 0 0 1 7 .5a6.004 6.004 0 0 1 5.18 3 5.97 5.97 0 0 1 0 6 5.955 5.955 0 0 1-5.18 3zM5.102 4.602c-.235.234-.235.585 0 .796L6.203 6.5 5.102 7.602c-.235.234-.235.585 0 .796.21.235.562.235.773 0l1.102-1.101 1.101 1.101c.235.235.586.235.797 0 .234-.21.234-.562 0-.796L7.773 6.5l1.102-1.102c.234-.21.234-.562 0-.796-.21-.211-.563-.211-.797 0L6.977 5.703 5.875 4.602a.552.552 0 0 0-.773 0z" fill="#DC0A56"/>
</svg>
