<svg width="18" height="18" viewBox="0 0 18 18" fill="none" xmlns="http://www.w3.org/2000/svg">
    <path d="m1.29 1.914.41.3c.3-.273.71-.464 1.175-.464h12.223c.984 0 1.75.793 1.75 1.75v7.875a1.74 1.74 0 0 1-1.285 1.695l1.914 1.532c.3.218.355.628.109.902a.604.604 0 0 1-.902.11L.496 2.925a.604.604 0 0 1-.11-.903.604.604 0 0 1 .903-.109zM2.792 3.09l11.156 8.723h1.176a.45.45 0 0 0 .438-.438V3.5a.47.47 0 0 0-.438-.438H2.875c-.027 0-.055 0-.082.028zm-.356 8.285c0 .246.192.438.438.438h6.809l1.668 1.312h-.274l.219 1.313h1.422c.355 0 .656.3.656.656 0 .383-.3.656-.656.656H5.28a.632.632 0 0 1-.656-.656c0-.356.273-.656.656-.656h1.395l.219-1.313h-4.02c-.984 0-1.75-.766-1.75-1.75v-6.29l1.313 1.04v5.25zm5.797 1.75-.218 1.313h1.941l-.219-1.313H8.234z" fill="#47494D"/>
</svg>
